<svg width="330" height="330" xmlns="http://www.w3.org/2000/svg" xmlns:xlink="http://www.w3.org/1999/xlink" xml:space="preserve" overflow="hidden"><defs><clipPath id="clip0"><rect x="1064" y="586" width="330" height="330"/></clipPath></defs><g clip-path="url(#clip0)" transform="translate(-1064 -586)"><path d="M1064 641.001C1064 610.625 1088.62 586 1119 586L1339 586C1369.38 586 1394 610.625 1394 641.001L1394 860.999C1394 891.375 1369.38 916 1339 916L1119 916C1088.62 916 1064 891.375 1064 860.999Z" fill="#3F51B5" fill-rule="evenodd"/><path d="M1112.14 867.872 1345.89 867.872 1345.89 847.247 1132.77 847.247 1132.77 634.122 1112.14 634.122 1112.14 867.872Z" fill="#FFFFFF"/><path d="M1153.39 799.121 1187.77 799.121 1187.77 826.617 1153.39 826.617Z" fill="#FFFFFF"/><path d="M1201.52 778.496 1235.89 778.496 1235.89 826.617 1201.52 826.617Z" fill="#FFFFFF"/><path d="M1249.64 740.683 1284.02 740.683 1284.02 826.617 1249.64 826.617Z" fill="#FFFFFF"/><path d="M1297.77 665.058 1332.14 665.058 1332.14 826.617 1297.77 826.617Z" fill="#FFFFFF"/><path d="M1243.78 687.741C1246.9 687.76 1249.45 685.242 1249.47 682.116 1249.49 678.991 1246.97 676.441 1243.84 676.423 1242.45 676.414 1241.1 676.923 1240.05 677.852L1227.44 682.056C1226.37 679.82 1225.04 677.719 1223.48 675.795L1233.37 664.193C1233.49 664.198 1233.6 664.228 1233.71 664.228 1238.34 664.339 1242.18 660.679 1242.29 656.054 1242.4 651.428 1238.74 647.589 1234.11 647.479 1229.49 647.369 1225.65 651.029 1225.54 655.654 1225.53 656.216 1225.57 656.778 1225.67 657.331L1215.73 669.001C1212.18 666.789 1208.23 665.312 1204.1 664.658L1203.87 657.407C1205.68 654.445 1204.75 650.574 1201.78 648.76 1198.82 646.947 1194.95 647.878 1193.14 650.841 1191.76 653.089 1191.93 655.957 1193.57 658.024L1193.78 664.716C1189.5 665.444 1185.41 667.058 1181.78 669.456L1175.12 662.191C1175.19 661.825 1175.22 661.455 1175.23 661.084 1175.24 656.57 1171.58 652.91 1167.06 652.909 1162.55 652.909 1158.89 656.569 1158.89 661.084 1158.89 665.598 1162.55 669.258 1167.06 669.258 1167.06 669.258 1167.06 669.258 1167.06 669.258 1167.23 669.258 1167.39 669.218 1167.56 669.208L1174.25 676.5C1170.89 680.844 1168.74 685.996 1168.01 691.437L1161.72 691.267C1158.95 688.63 1154.56 688.74 1151.93 691.513 1149.29 694.286 1149.4 698.67 1152.17 701.307 1154.74 703.744 1158.72 703.86 1161.42 701.576L1168.29 701.761C1168.98 705.254 1170.27 708.602 1172.09 711.66L1159.64 720.898C1155.51 720.473 1151.81 723.482 1151.39 727.617 1150.96 731.753 1153.97 735.449 1158.11 735.873 1162.24 736.298 1165.94 733.289 1166.36 729.154 1166.38 729.013 1166.39 728.871 1166.4 728.729L1178.74 719.572C1181.74 722.138 1185.21 724.112 1188.95 725.391L1186.54 734.063C1182 735.881 1179.8 741.033 1181.61 745.572 1183.43 750.109 1188.58 752.315 1193.12 750.497 1197.66 748.678 1199.86 743.526 1198.05 738.988 1197.69 738.091 1197.18 737.26 1196.56 736.526L1199.17 727.107C1203.32 727.106 1207.43 726.281 1211.25 724.681L1218.85 736.627C1218.19 740.385 1220.7 743.97 1224.46 744.633 1228.22 745.295 1231.8 742.786 1232.46 739.027 1233.07 735.568 1230.99 732.202 1227.63 731.203L1219.97 719.168C1222.92 716.553 1225.35 713.406 1227.14 709.893L1236.52 712.802C1238.4 716.115 1242.61 717.278 1245.92 715.399 1249.23 713.52 1250.39 709.312 1248.52 705.999 1246.79 702.962 1243.07 701.692 1239.85 703.039L1230.23 700.052C1230.65 697.373 1230.68 694.649 1230.33 691.961L1243.17 687.68C1243.37 687.712 1243.57 687.732 1243.78 687.741ZM1196.61 710.761C1194.53 710.761 1192.84 709.072 1192.84 706.988 1192.84 704.904 1194.53 703.215 1196.61 703.215 1198.7 703.215 1200.39 704.904 1200.39 706.987 1200.39 709.071 1198.7 710.76 1196.61 710.761ZM1204.79 694.412C1202.36 694.412 1200.39 692.441 1200.39 690.01 1200.39 687.579 1202.36 685.608 1204.79 685.608 1207.22 685.608 1209.19 687.579 1209.19 690.01 1209.19 690.01 1209.19 690.01 1209.19 690.01 1209.19 692.441 1207.22 694.411 1204.79 694.411ZM1212.34 710.761C1209.9 710.761 1207.93 708.79 1207.93 706.359 1207.93 703.928 1209.9 701.957 1212.33 701.957 1214.77 701.957 1216.74 703.928 1216.74 706.359 1216.74 706.359 1216.74 706.359 1216.74 706.359 1216.74 708.79 1214.77 710.76 1212.34 710.761Z" fill="#FFFFFF"/></g></svg>