<svg width="330" height="330" xmlns="http://www.w3.org/2000/svg" xmlns:xlink="http://www.w3.org/1999/xlink" xml:space="preserve" overflow="hidden"><defs><clipPath id="clip0"><rect x="713" y="224" width="330" height="330"/></clipPath></defs><g clip-path="url(#clip0)" transform="translate(-713 -224)"><path d="M713 279.001C713 248.625 737.625 224 768.001 224L987.999 224C1018.38 224 1043 248.625 1043 279.001L1043 498.999C1043 529.375 1018.38 554 987.999 554L768.001 554C737.625 554 713 529.375 713 498.999Z" fill="#F5F5F5" fill-rule="evenodd"/><path d="M761.142 505.872 994.892 505.872 994.892 485.247 781.767 485.247 781.767 272.122 761.142 272.122 761.142 505.872Z" fill="#A6A6A6"/><path d="M802.391 437.121 836.766 437.121 836.766 464.617 802.391 464.617Z" fill="#A6A6A6"/><path d="M850.516 416.496 884.891 416.496 884.891 464.617 850.516 464.617Z" fill="#A6A6A6"/><path d="M898.641 378.684 933.016 378.684 933.016 464.617 898.641 464.617Z" fill="#A6A6A6"/><path d="M946.766 303.059 981.141 303.059 981.141 464.617 946.766 464.617Z" fill="#A6A6A6"/><path d="M892.776 325.741C895.901 325.76 898.451 323.242 898.47 320.116 898.489 316.991 895.97 314.441 892.845 314.423 891.447 314.414 890.096 314.923 889.051 315.852L876.438 320.056C875.372 317.82 874.045 315.719 872.485 313.795L882.368 302.193C882.486 302.198 882.596 302.228 882.715 302.228 887.34 302.339 891.179 298.679 891.289 294.054 891.4 289.428 887.74 285.589 883.115 285.479 878.489 285.369 874.65 289.029 874.54 293.654 874.527 294.216 874.57 294.778 874.669 295.331L864.727 307.001C861.181 304.789 857.227 303.313 853.099 302.658L852.865 295.407C854.679 292.445 853.747 288.574 850.785 286.76 847.823 284.947 843.952 285.878 842.138 288.841 840.762 291.089 840.934 293.957 842.569 296.024L842.784 302.716C838.498 303.444 834.411 305.058 830.784 307.456L824.124 300.191C824.186 299.825 824.223 299.455 824.235 299.084 824.235 294.57 820.576 290.91 816.061 290.909 811.546 290.909 807.886 294.569 807.886 299.084 807.886 303.598 811.546 307.258 816.06 307.258 816.06 307.258 816.06 307.258 816.061 307.258 816.233 307.258 816.394 307.218 816.564 307.208L823.248 314.5C819.892 318.844 817.739 323.996 817.007 329.437L810.722 329.267C807.949 326.63 803.564 326.74 800.927 329.513 798.291 332.286 798.401 336.67 801.173 339.307 803.736 341.744 807.722 341.86 810.422 339.576L817.291 339.761C817.984 343.254 819.271 346.602 821.095 349.66L808.645 358.898C804.509 358.473 800.813 361.482 800.388 365.617 799.964 369.753 802.972 373.449 807.108 373.873 811.243 374.298 814.94 371.289 815.364 367.154 815.379 367.013 815.389 366.871 815.396 366.729L827.737 357.572C830.744 360.138 834.208 362.112 837.947 363.391L835.538 372.063C831 373.881 828.795 379.033 830.613 383.572 832.431 388.109 837.584 390.315 842.122 388.497 846.66 386.678 848.865 381.526 847.047 376.988 846.688 376.091 846.185 375.26 845.557 374.526L848.173 365.107C852.32 365.106 856.426 364.281 860.252 362.681L867.853 374.627C867.191 378.385 869.7 381.97 873.459 382.633 877.217 383.295 880.801 380.786 881.464 377.027 882.074 373.569 879.993 370.202 876.626 369.203L868.968 357.168C871.919 354.553 874.353 351.406 876.144 347.893L885.518 350.802C887.397 354.115 891.606 355.278 894.919 353.399 898.232 351.52 899.395 347.312 897.516 343.999 895.794 340.962 892.075 339.692 888.855 341.039L879.23 338.052C879.647 335.373 879.682 332.649 879.333 329.961L892.174 325.68C892.374 325.712 892.574 325.732 892.776 325.741ZM845.615 348.761C843.531 348.761 841.842 347.072 841.842 344.988 841.842 342.904 843.531 341.215 845.615 341.215 847.698 341.215 849.388 342.904 849.388 344.987 849.388 347.071 847.699 348.76 845.615 348.761ZM853.789 332.412C851.358 332.412 849.388 330.441 849.388 328.01 849.387 325.579 851.358 323.608 853.789 323.608 856.22 323.608 858.191 325.579 858.191 328.01 858.191 328.01 858.191 328.01 858.191 328.01 858.191 330.441 856.221 332.411 853.79 332.411ZM861.335 348.761C858.904 348.761 856.934 346.79 856.933 344.359 856.933 341.928 858.904 339.957 861.335 339.957 863.766 339.957 865.737 341.928 865.737 344.359 865.737 344.359 865.737 344.359 865.737 344.359 865.737 346.79 863.766 348.76 861.335 348.761Z" fill="#A6A6A6"/></g></svg>