<svg width="332" height="330" xmlns="http://www.w3.org/2000/svg" xmlns:xlink="http://www.w3.org/1999/xlink" xml:space="preserve" overflow="hidden"><defs><clipPath id="clip0"><rect x="2029" y="405" width="332" height="330"/></clipPath></defs><g clip-path="url(#clip0)" transform="translate(-2029 -405)"><path d="M2031 460.001C2031 429.625 2055.62 405 2086 405L2306 405C2336.38 405 2361 429.625 2361 460.001L2361 679.999C2361 710.375 2336.38 735 2306 735L2086 735C2055.62 735 2031 710.375 2031 679.999Z" fill="#3F51B5" fill-rule="evenodd"/><g><g><g><path d="M2290.25 466.875C2290.25 482.063 2247.16 494.375 2194 494.375 2140.84 494.375 2097.75 482.063 2097.75 466.875 2097.75 451.687 2140.84 439.375 2194 439.375 2247.16 439.375 2290.25 451.687 2290.25 466.875Z" fill="#FFFFFF"/><path d="M2262.75 535.625C2258.63 535.625 2255.88 532.875 2255.88 528.75 2255.88 524.625 2258.63 521.875 2262.75 521.875 2266.88 521.875 2269.62 524.625 2269.62 528.75 2269.62 532.875 2266.88 535.625 2262.75 535.625ZM2194 508.125C2141.06 508.125 2097.75 495.75 2097.75 480.625L2097.75 535.625C2097.75 550.75 2141.06 563.125 2194 563.125 2246.94 563.125 2290.25 550.75 2290.25 535.625L2290.25 480.625C2290.25 495.75 2246.94 508.125 2194 508.125Z" fill="#FFFFFF"/><path d="M2262.75 604.375C2258.63 604.375 2255.88 601.625 2255.88 597.5 2255.88 593.375 2258.63 590.625 2262.75 590.625 2266.88 590.625 2269.62 593.375 2269.62 597.5 2269.62 601.625 2266.88 604.375 2262.75 604.375ZM2194 576.875C2141.06 576.875 2097.75 564.5 2097.75 549.375L2097.75 604.375C2097.75 619.5 2141.06 631.875 2194 631.875 2246.94 631.875 2290.25 619.5 2290.25 604.375L2290.25 549.375C2290.25 564.5 2246.94 576.875 2194 576.875Z" fill="#FFFFFF"/><path d="M2262.75 673.125C2258.63 673.125 2255.88 670.375 2255.88 666.25 2255.88 662.125 2258.63 659.375 2262.75 659.375 2266.88 659.375 2269.62 662.125 2269.62 666.25 2269.62 670.375 2266.88 673.125 2262.75 673.125ZM2194 645.625C2141.06 645.625 2097.75 633.25 2097.75 618.125L2097.75 673.125C2097.75 688.25 2141.06 700.625 2194 700.625 2246.94 700.625 2290.25 688.25 2290.25 673.125L2290.25 618.125C2290.25 633.25 2246.94 645.625 2194 645.625Z" fill="#FFFFFF"/></g></g></g></g></svg>