<svg width="330" height="330" xmlns="http://www.w3.org/2000/svg" xmlns:xlink="http://www.w3.org/1999/xlink" xml:space="preserve" overflow="hidden"><defs><clipPath id="clip0"><rect x="1787" y="570" width="330" height="330"/></clipPath></defs><g clip-path="url(#clip0)" transform="translate(-1787 -570)"><path d="M1787 625.001C1787 594.625 1811.62 570 1842 570L2062 570C2092.38 570 2117 594.625 2117 625.001L2117 844.999C2117 875.375 2092.38 900 2062 900L1842 900C1811.62 900 1787 875.375 1787 844.999Z" fill="#F5F5F5" fill-rule="evenodd"/><path d="M2048.25 631.875C2048.25 647.063 2005.16 659.375 1952 659.375 1898.84 659.375 1855.75 647.063 1855.75 631.875 1855.75 616.687 1898.84 604.375 1952 604.375 2005.16 604.375 2048.25 616.687 2048.25 631.875Z" fill="#A6A6A6"/><path d="M2020.75 700.625C2016.63 700.625 2013.88 697.875 2013.88 693.75 2013.88 689.625 2016.63 686.875 2020.75 686.875 2024.88 686.875 2027.63 689.625 2027.63 693.75 2027.63 697.875 2024.88 700.625 2020.75 700.625ZM1952 673.125C1899.06 673.125 1855.75 660.75 1855.75 645.625L1855.75 700.625C1855.75 715.75 1899.06 728.125 1952 728.125 2004.94 728.125 2048.25 715.75 2048.25 700.625L2048.25 645.625C2048.25 660.75 2004.94 673.125 1952 673.125Z" fill="#A6A6A6"/><path d="M2020.75 769.375C2016.63 769.375 2013.88 766.625 2013.88 762.5 2013.88 758.375 2016.63 755.625 2020.75 755.625 2024.88 755.625 2027.63 758.375 2027.63 762.5 2027.63 766.625 2024.88 769.375 2020.75 769.375ZM1952 741.875C1899.06 741.875 1855.75 729.5 1855.75 714.375L1855.75 769.375C1855.75 784.5 1899.06 796.875 1952 796.875 2004.94 796.875 2048.25 784.5 2048.25 769.375L2048.25 714.375C2048.25 729.5 2004.94 741.875 1952 741.875Z" fill="#A6A6A6"/><path d="M2020.75 838.125C2016.63 838.125 2013.88 835.375 2013.88 831.25 2013.88 827.125 2016.63 824.375 2020.75 824.375 2024.88 824.375 2027.63 827.125 2027.63 831.25 2027.63 835.375 2024.88 838.125 2020.75 838.125ZM1952 810.625C1899.06 810.625 1855.75 798.25 1855.75 783.125L1855.75 838.125C1855.75 853.25 1899.06 865.625 1952 865.625 2004.94 865.625 2048.25 853.25 2048.25 838.125L2048.25 783.125C2048.25 798.25 2004.94 810.625 1952 810.625Z" fill="#A6A6A6"/></g></svg>