<svg width="330" height="331" xmlns="http://www.w3.org/2000/svg" xmlns:xlink="http://www.w3.org/1999/xlink" xml:space="preserve" overflow="hidden"><g transform="translate(-3986 -1396)"><path d="M3986 1451C3986 1420.62 4010.62 1396 4041 1396L4261 1396C4291.38 1396 4316 1420.62 4316 1451L4316 1671C4316 1701.38 4291.38 1726 4261 1726L4041 1726C4010.62 1726 3986 1701.38 3986 1671Z" fill="#F5F5F5" fill-rule="evenodd"/><g><g><g><path d="M4157.88 1500.12 4144.12 1500.12C4136.56 1500.12 4130.38 1493.94 4130.38 1486.38L4130.38 1458.88C4130.38 1451.31 4136.56 1445.12 4144.12 1445.12L4157.88 1445.12C4165.44 1445.12 4171.62 1451.31 4171.62 1458.88L4171.62 1486.38C4171.62 1493.94 4165.44 1500.12 4157.88 1500.12Z" fill="#A6A6A6"/><path d="M4261 1568.88 4178.5 1568.88 4178.5 1555.12 4261 1555.12 4261 1568.88ZM4261 1610.12 4178.5 1610.12 4178.5 1596.38 4261 1596.38 4261 1610.12ZM4261 1651.38 4178.5 1651.38 4178.5 1637.62 4261 1637.62 4261 1651.38ZM4151 1651.38 4041 1651.38 4041 1623.88C4041 1619.75 4043.06 1615.62 4046.5 1612.88 4054.06 1607.38 4063.69 1602.56 4073.31 1599.81 4080.88 1597.75 4088.44 1596.38 4096 1596.38 4104.25 1596.38 4111.81 1597.75 4118.69 1599.81 4128.31 1602.56 4137.94 1606.69 4145.5 1612.88 4148.94 1615.62 4151 1619.75 4151 1623.88L4151 1651.38ZM4096 1534.5C4111.13 1534.5 4123.5 1546.88 4123.5 1562 4123.5 1577.12 4111.13 1589.5 4096 1589.5 4080.88 1589.5 4068.5 1577.12 4068.5 1562 4068.5 1546.88 4080.88 1534.5 4096 1534.5ZM4274.75 1486.38 4185.38 1486.38C4185.38 1501.5 4173 1513.88 4157.88 1513.88L4144.12 1513.88C4129 1513.88 4116.62 1501.5 4116.62 1486.38L4027.25 1486.38C4019.69 1486.38 4013.5 1492.56 4013.5 1500.12L4013.5 1665.12C4013.5 1672.69 4019.69 1678.88 4027.25 1678.88L4274.75 1678.88C4282.31 1678.88 4288.5 1672.69 4288.5 1665.12L4288.5 1500.12C4288.5 1492.56 4282.31 1486.38 4274.75 1486.38Z" fill="#A6A6A6"/></g></g></g></g></svg>