<svg width="331" height="330" xmlns="http://www.w3.org/2000/svg" xmlns:xlink="http://www.w3.org/1999/xlink" xml:space="preserve" overflow="hidden"><defs><clipPath id="clip0"><rect x="1896" y="907" width="331" height="330"/></clipPath></defs><g clip-path="url(#clip0)" transform="translate(-1896 -907)"><path d="M1897 962.001C1897 931.625 1921.62 907 1952 907L2172 907C2202.38 907 2227 931.625 2227 962.001L2227 1182C2227 1212.38 2202.38 1237 2172 1237L1952 1237C1921.62 1237 1897 1212.38 1897 1182Z" fill="#3F51B5" fill-rule="evenodd"/><path d="M2067.88 1010.13 2054.12 1010.13C2046.56 1010.13 2040.38 1003.94 2040.38 996.375L2040.38 968.875C2040.38 961.313 2046.56 955.125 2054.12 955.125L2067.88 955.125C2075.44 955.125 2081.62 961.313 2081.62 968.875L2081.62 996.375C2081.62 1003.94 2075.44 1010.13 2067.88 1010.13Z" fill="#FFFFFF"/><path d="M2171 1078.88 2088.5 1078.88 2088.5 1065.13 2171 1065.13 2171 1078.88ZM2171 1120.13 2088.5 1120.13 2088.5 1106.38 2171 1106.38 2171 1120.13ZM2171 1161.38 2088.5 1161.38 2088.5 1147.63 2171 1147.63 2171 1161.38ZM2061 1161.38 1951 1161.38 1951 1133.88C1951 1129.75 1953.06 1125.63 1956.5 1122.88 1964.06 1117.38 1973.69 1112.56 1983.31 1109.81 1990.88 1107.75 1998.44 1106.38 2006 1106.38 2014.25 1106.38 2021.81 1107.75 2028.69 1109.81 2038.31 1112.56 2047.94 1116.69 2055.5 1122.88 2058.94 1125.63 2061 1129.75 2061 1133.88L2061 1161.38ZM2006 1044.5C2021.13 1044.5 2033.5 1056.88 2033.5 1072 2033.5 1087.13 2021.13 1099.5 2006 1099.5 1990.88 1099.5 1978.5 1087.13 1978.5 1072 1978.5 1056.88 1990.88 1044.5 2006 1044.5ZM2184.75 996.375 2095.38 996.375C2095.38 1011.5 2083 1023.88 2067.88 1023.88L2054.12 1023.88C2039 1023.88 2026.63 1011.5 2026.63 996.375L1937.25 996.375C1929.69 996.375 1923.5 1002.56 1923.5 1010.13L1923.5 1175.13C1923.5 1182.69 1929.69 1188.88 1937.25 1188.88L2184.75 1188.88C2192.31 1188.88 2198.5 1182.69 2198.5 1175.13L2198.5 1010.13C2198.5 1002.56 2192.31 996.375 2184.75 996.375Z" fill="#FFFFFF"/></g></svg>