<svg width="330" height="330" xmlns="http://www.w3.org/2000/svg" xmlns:xlink="http://www.w3.org/1999/xlink" xml:space="preserve" overflow="hidden"><defs><clipPath id="clip0"><rect x="1143" y="425" width="330" height="330"/></clipPath></defs><g clip-path="url(#clip0)" transform="translate(-1143 -425)"><path d="M1143 480.001C1143 449.625 1167.62 425 1198 425L1418 425C1448.38 425 1473 449.625 1473 480.001L1473 699.999C1473 730.375 1448.38 755 1418 755L1198 755C1167.62 755 1143 730.375 1143 699.999Z" fill="#3F51B5" fill-rule="evenodd"/><path d="M1342.38 491.818C1341.46 492.276 1340.56 492.767 1339.67 493.289 1322.82 503.232 1313.95 522.627 1317.46 541.875L1342.38 541.875Z" fill="#FFFFFF"/><path d="M1320.59 552.187C1330.91 575.791 1358.41 586.561 1382.01 576.243 1383.7 575.504 1385.34 574.667 1386.93 573.734 1386.97 573.706 1387.01 573.675 1387.06 573.651L1387.06 552.187Z" fill="#FFFFFF"/><path d="M1322.26 463.648C1322.76 463.352 1323.29 463.098 1323.8 462.812L1263.31 462.812 1263.31 541.875 1282.74 541.875C1279.48 510.315 1294.92 479.752 1322.26 463.648ZM1273.62 473.125 1287.38 473.125 1287.38 486.875 1273.62 486.875Z" fill="#FFFFFF"/><path d="M1387.06 612.904 1386.07 611.209C1378.69 613.375 1371.03 614.47 1363.34 614.461 1342.8 614.419 1323.03 606.614 1308 592.612L1308 631.25 1387.06 631.25Z" fill="#FFFFFF"/><path d="M1412.47 670.437 1395.51 641.562 1352.69 641.562 1352.69 720.625 1428.31 720.625 1428.31 682.661C1421.65 680.787 1415.97 676.407 1412.47 670.437ZM1376.75 665.625 1363 665.625 1363 651.875 1376.75 651.875Z" fill="#FFFFFF"/><path d="M1263.31 720.625 1342.38 720.625 1342.38 641.562 1263.31 641.562ZM1273.62 651.875 1287.38 651.875 1287.38 665.625 1273.62 665.625Z" fill="#FFFFFF"/><path d="M1173.94 720.625 1253 720.625 1253 641.562 1173.94 641.562ZM1184.25 651.875 1198 651.875 1198 665.625 1184.25 665.625Z" fill="#FFFFFF"/><path d="M1297.69 580.966C1296.19 578.904 1294.75 576.779 1293.45 574.559 1289.35 567.594 1286.32 560.052 1284.46 552.187L1218.62 552.187 1218.62 631.25 1297.69 631.25ZM1242.69 576.25 1228.94 576.25 1228.94 562.5 1242.69 562.5Z" fill="#FFFFFF"/><path d="M1424.27 497.689C1404.52 463.997 1361.2 452.694 1327.51 472.443 1293.82 492.192 1282.51 535.515 1302.26 569.207 1320.19 599.782 1357.97 612.367 1390.65 598.645L1399.33 613.426C1397 618.394 1397.26 624.194 1400.05 628.926L1421.36 665.192C1426.11 673.067 1436.35 675.596 1444.23 670.84 1451.97 666.165 1454.57 656.169 1450.08 648.317L1428.77 612.051C1425.99 607.323 1421.06 604.267 1415.59 603.88L1406.91 589.099C1434.73 567.25 1442.14 528.217 1424.27 497.689ZM1314.19 562.369C1298.25 535.246 1307.32 500.337 1334.44 484.399 1361.56 468.461 1396.47 477.529 1412.41 504.653 1428.35 531.776 1419.28 566.685 1392.16 582.623 1392.16 582.623 1392.16 582.623 1392.16 582.623 1365.03 598.522 1330.15 589.462 1314.19 562.369Z" fill="#FFFFFF"/></g></svg>