<svg width="331" height="330" xmlns="http://www.w3.org/2000/svg" xmlns:xlink="http://www.w3.org/1999/xlink" xml:space="preserve" overflow="hidden"><defs><clipPath id="clip0"><rect x="3559" y="240" width="331" height="330"/></clipPath></defs><g clip-path="url(#clip0)" transform="translate(-3559 -240)"><path d="M3559 295.001C3559 264.625 3583.62 240 3614 240L3834 240C3864.38 240 3889 264.625 3889 295.001L3889 514.999C3889 545.375 3864.38 570 3834 570L3614 570C3583.62 570 3559 545.375 3559 514.999Z" fill="#F5F5F5" fill-rule="evenodd"/><path d="M3759.37 306.818C3758.46 307.276 3757.56 307.767 3756.67 308.289 3739.82 318.232 3730.95 337.627 3734.46 356.875L3759.37 356.875Z" fill="#A6A6A6"/><path d="M3737.59 367.187C3747.91 390.791 3775.41 401.561 3799.01 391.243 3800.7 390.504 3802.34 389.667 3803.93 388.734 3803.97 388.706 3804.01 388.675 3804.06 388.651L3804.06 367.187Z" fill="#A6A6A6"/><path d="M3739.26 278.648C3739.76 278.352 3740.29 278.098 3740.8 277.812L3680.31 277.812 3680.31 356.875 3699.74 356.875C3696.48 325.315 3711.92 294.752 3739.26 278.648ZM3690.62 288.125 3704.37 288.125 3704.37 301.875 3690.62 301.875Z" fill="#A6A6A6"/><path d="M3804.06 427.904 3803.07 426.209C3795.69 428.375 3788.03 429.47 3780.34 429.461 3759.8 429.419 3740.03 421.614 3725 407.612L3725 446.25 3804.06 446.25Z" fill="#A6A6A6"/><path d="M3829.47 485.437 3812.51 456.562 3769.69 456.562 3769.69 535.625 3845.31 535.625 3845.31 497.661C3838.65 495.787 3832.97 491.407 3829.47 485.437ZM3793.75 480.625 3780 480.625 3780 466.875 3793.75 466.875Z" fill="#A6A6A6"/><path d="M3680.31 535.625 3759.37 535.625 3759.37 456.562 3680.31 456.562ZM3690.62 466.875 3704.37 466.875 3704.37 480.625 3690.62 480.625Z" fill="#A6A6A6"/><path d="M3590.94 535.625 3670 535.625 3670 456.562 3590.94 456.562ZM3601.25 466.875 3615 466.875 3615 480.625 3601.25 480.625Z" fill="#A6A6A6"/><path d="M3714.69 395.966C3713.19 393.904 3711.75 391.779 3710.45 389.559 3706.35 382.594 3703.32 375.052 3701.46 367.187L3635.62 367.187 3635.62 446.25 3714.69 446.25ZM3659.69 391.25 3645.94 391.25 3645.94 377.5 3659.69 377.5Z" fill="#A6A6A6"/><path d="M3841.27 312.689C3821.52 278.997 3778.2 267.694 3744.51 287.443 3710.82 307.192 3699.51 350.515 3719.26 384.207 3737.19 414.782 3774.97 427.367 3807.65 413.645L3816.33 428.427C3814 433.394 3814.26 439.194 3817.05 443.926L3838.36 480.192C3843.11 488.067 3853.35 490.596 3861.23 485.84 3868.97 481.165 3871.57 471.169 3867.08 463.317L3845.77 427.052C3842.99 422.323 3838.06 419.267 3832.59 418.881L3823.91 404.099C3851.73 382.25 3859.14 343.217 3841.27 312.689ZM3731.19 377.369C3715.25 350.246 3724.32 315.337 3751.44 299.399 3778.56 283.461 3813.47 292.529 3829.41 319.653 3845.35 346.776 3836.28 381.685 3809.16 397.623 3809.16 397.623 3809.16 397.623 3809.16 397.623 3782.03 413.522 3747.15 404.462 3731.19 377.369Z" fill="#A6A6A6"/></g></svg>