<svg width="330" height="330" xmlns="http://www.w3.org/2000/svg" xmlns:xlink="http://www.w3.org/1999/xlink" xml:space="preserve" overflow="hidden"><defs><clipPath id="clip0"><rect x="1325" y="1073" width="330" height="330"/></clipPath></defs><g clip-path="url(#clip0)" transform="translate(-1325 -1073)"><path d="M1325 1128C1325 1097.62 1349.62 1073 1380 1073L1600 1073C1630.38 1073 1655 1097.62 1655 1128L1655 1348C1655 1378.38 1630.38 1403 1600 1403L1380 1403C1349.62 1403 1325 1378.38 1325 1348Z" fill="#F5F5F5" fill-rule="evenodd"/><path d="M1424.69 1162.37C1430.53 1162.37 1435 1157.91 1435 1152.06L1435 1131.44C1435 1125.59 1430.53 1121.12 1424.69 1121.12 1418.84 1121.12 1414.38 1125.59 1414.38 1131.44L1414.38 1152.06C1414.38 1157.91 1418.84 1162.37 1424.69 1162.37Z" fill="#A6A6A6"/><path d="M1393.75 1306.75 1448.75 1306.75 1448.75 1334.25 1393.75 1334.25 1393.75 1306.75ZM1393.75 1265.5 1448.75 1265.5 1448.75 1293 1393.75 1293 1393.75 1265.5ZM1393.75 1224.25 1448.75 1224.25 1448.75 1251.75 1393.75 1251.75 1393.75 1224.25ZM1517.5 1224.25 1517.5 1251.75 1462.5 1251.75 1462.5 1224.25 1517.5 1224.25ZM1586.25 1224.25 1586.25 1251.75 1531.25 1251.75 1531.25 1224.25 1586.25 1224.25ZM1586.25 1293 1531.25 1293 1531.25 1265.5 1586.25 1265.5 1586.25 1293ZM1586.25 1334.25 1531.25 1334.25 1531.25 1306.75 1586.25 1306.75 1586.25 1334.25ZM1462.5 1293 1462.5 1265.5 1517.5 1265.5 1517.5 1293 1462.5 1293ZM1462.5 1334.25 1462.5 1306.75 1517.5 1306.75 1517.5 1334.25 1462.5 1334.25ZM1373.13 1354.87 1606.88 1354.87 1606.88 1203.62 1373.13 1203.62 1373.13 1354.87Z" fill="#A6A6A6"/><path d="M1555.31 1162.37C1561.16 1162.37 1565.63 1157.91 1565.63 1152.06L1565.63 1131.44C1565.63 1125.59 1561.16 1121.12 1555.31 1121.12 1549.47 1121.12 1545 1125.59 1545 1131.44L1545 1152.06C1545 1157.91 1549.47 1162.37 1555.31 1162.37Z" fill="#A6A6A6"/><path d="M1579.38 1141.75 1579.38 1152.06C1579.38 1165.47 1568.72 1176.12 1555.31 1176.12 1541.91 1176.12 1531.25 1165.47 1531.25 1152.06L1531.25 1141.75 1448.75 1141.75 1448.75 1152.06C1448.75 1165.47 1438.09 1176.12 1424.69 1176.12 1411.28 1176.12 1400.63 1165.47 1400.63 1152.06L1400.63 1141.75 1373.13 1141.75 1373.13 1189.87 1606.88 1189.87 1606.88 1141.75 1579.38 1141.75Z" fill="#A6A6A6"/></g></svg>