<svg width="330" height="330" xmlns="http://www.w3.org/2000/svg" xmlns:xlink="http://www.w3.org/1999/xlink" xml:space="preserve" overflow="hidden"><defs><clipPath id="clip0"><rect x="650" y="1395" width="330" height="330"/></clipPath></defs><g clip-path="url(#clip0)" transform="translate(-650 -1395)"><path d="M650 1450C650 1419.62 674.625 1395 705.001 1395L924.999 1395C955.375 1395 980 1419.62 980 1450L980 1670C980 1700.38 955.375 1725 924.999 1725L705.001 1725C674.625 1725 650 1700.38 650 1670Z" fill="#3F51B5" fill-rule="evenodd"/><path d="M749.688 1484.37C755.531 1484.37 760 1479.91 760 1474.06L760 1453.44C760 1447.59 755.531 1443.12 749.688 1443.12 743.844 1443.12 739.375 1447.59 739.375 1453.44L739.375 1474.06C739.375 1479.91 743.844 1484.37 749.688 1484.37Z" fill="#FFFFFF"/><path d="M718.75 1628.75 773.75 1628.75 773.75 1656.25 718.75 1656.25 718.75 1628.75ZM718.75 1587.5 773.75 1587.5 773.75 1615 718.75 1615 718.75 1587.5ZM718.75 1546.25 773.75 1546.25 773.75 1573.75 718.75 1573.75 718.75 1546.25ZM842.5 1546.25 842.5 1573.75 787.5 1573.75 787.5 1546.25 842.5 1546.25ZM911.25 1546.25 911.25 1573.75 856.25 1573.75 856.25 1546.25 911.25 1546.25ZM911.25 1615 856.25 1615 856.25 1587.5 911.25 1587.5 911.25 1615ZM911.25 1656.25 856.25 1656.25 856.25 1628.75 911.25 1628.75 911.25 1656.25ZM787.5 1615 787.5 1587.5 842.5 1587.5 842.5 1615 787.5 1615ZM787.5 1656.25 787.5 1628.75 842.5 1628.75 842.5 1656.25 787.5 1656.25ZM698.125 1676.87 931.875 1676.87 931.875 1525.62 698.125 1525.62 698.125 1676.87Z" fill="#FFFFFF"/><path d="M880.313 1484.37C886.156 1484.37 890.625 1479.91 890.625 1474.06L890.625 1453.44C890.625 1447.59 886.156 1443.12 880.313 1443.12 874.469 1443.12 870 1447.59 870 1453.44L870 1474.06C870 1479.91 874.469 1484.37 880.313 1484.37Z" fill="#FFFFFF"/><path d="M904.375 1463.75 904.375 1474.06C904.375 1487.47 893.719 1498.12 880.313 1498.12 866.906 1498.12 856.25 1487.47 856.25 1474.06L856.25 1463.75 773.75 1463.75 773.75 1474.06C773.75 1487.47 763.094 1498.12 749.688 1498.12 736.281 1498.12 725.625 1487.47 725.625 1474.06L725.625 1463.75 698.125 1463.75 698.125 1511.87 931.875 1511.87 931.875 1463.75 904.375 1463.75Z" fill="#FFFFFF"/></g></svg>