<svg width="330" height="332" xmlns="http://www.w3.org/2000/svg" xmlns:xlink="http://www.w3.org/1999/xlink" xml:space="preserve" overflow="hidden"><defs><clipPath id="clip0"><rect x="812" y="1568" width="330" height="332"/></clipPath></defs><g clip-path="url(#clip0)" transform="translate(-812 -1568)"><path d="M812 1625C812 1594.62 836.625 1570 867.001 1570L1087 1570C1117.38 1570 1142 1594.62 1142 1625L1142 1845C1142 1875.38 1117.38 1900 1087 1900L867.001 1900C836.625 1900 812 1875.38 812 1845Z" fill="#F5F5F5" fill-rule="evenodd"/><g><g><g><path d="M1065.34 1715.12C1073.59 1763.94 1040.94 1810 992.469 1818.25 989.375 1818.59 986.625 1821.34 986.281 1824.78L986.281 1825.12C986.281 1828.91 989.375 1832 993.156 1832 993.5 1832 993.844 1832 994.187 1832 994.875 1832 995.562 1831.66 996.25 1831.66 1052.28 1821 1089.06 1767.03 1078.41 1711L1078.41 1711 1078.41 1711 1088.72 1716.84 1089.41 1717.19C1092.84 1718.91 1096.97 1717.19 1098.34 1713.75 1099.72 1710.31 1098.34 1706.53 1095.25 1704.81L1070.5 1690.37 1070.5 1690.37C1067.06 1688.31 1062.94 1689.69 1061.22 1692.78L1046.78 1717.87C1045.06 1720.97 1045.41 1724.75 1048.16 1726.81L1049.19 1727.5C1052.62 1729.56 1056.75 1728.19 1058.47 1725.09L1065 1714.44 1065.34 1715.12Z" fill="#A6A6A6"/><path d="M931.281 1834.41C928.187 1836.81 927.844 1841.28 930.25 1844.03 932.656 1846.78 936.437 1847.12 939.187 1845.41L964.281 1830.97 964.281 1830.97C967.719 1829.25 968.75 1824.78 966.687 1821.69L952.937 1796.59C951.219 1793.5 947.437 1792.12 944 1793.5L943.312 1793.84C939.875 1795.56 938.844 1800.03 940.906 1803.12L946.75 1814.12 946.75 1814.12 946.75 1814.12C946.406 1814.12 946.062 1814.12 946.062 1814.12 899.656 1796.94 876.281 1745.37 893.469 1698.97L893.812 1698.28C894.844 1694.5 892.437 1690.72 889 1690.03 885.562 1689.34 881.781 1691.06 880.75 1694.5L880.406 1695.87C860.812 1749.5 889 1808.62 942.969 1827.53L942.969 1827.53 942.969 1827.53 932.312 1833.72 931.281 1834.41Z" fill="#A6A6A6"/><path d="M1055.38 1663.22C1018.59 1619.91 953.625 1614.41 909.969 1651.53L909.969 1651.53 909.969 1651.53 910.312 1639.16C910.312 1638.81 910.312 1638.47 910.312 1638.12 909.625 1634.34 906.187 1631.94 902.406 1632.62 898.969 1633.31 896.562 1636.41 896.562 1639.84L896.562 1668.72C896.562 1670.44 897.25 1672.16 898.625 1673.53L899.656 1674.22C900.687 1674.91 902.062 1675.25 903.437 1675.25 903.781 1675.25 904.125 1675.25 904.125 1675.25L931.969 1675.25C935.406 1675.25 938.5 1672.84 939.187 1669.41 939.187 1669.06 939.187 1668.72 939.187 1668.37 939.187 1664.59 936.094 1661.5 932.312 1661.5L920.281 1661.5 920.281 1661.5C920.281 1661.5 920.281 1661.5 920.281 1661.16 958.094 1630.22 1013.78 1635.37 1045.41 1672.84L1046.09 1673.53C1048.84 1675.94 1053.31 1675.59 1055.72 1672.84 1057.78 1670.09 1057.78 1666.31 1055.72 1663.56L1055.38 1663.22Z" fill="#A6A6A6"/><path d="M954.656 1716.5 977 1729.91 1026.16 1700 1003.81 1686.59Z" fill="#A6A6A6"/><path d="M949.156 1713.06 998.312 1683.16 977 1670.09 927.844 1700Z" fill="#A6A6A6"/><path d="M1026.16 1707.22 980.094 1735.06 980.094 1787.66 1026.16 1759.81 1026.16 1712.03Z" fill="#A6A6A6"/><path d="M957.75 1733 968.062 1738.84 968.062 1749.16 957.75 1743.31 957.75 1733ZM927.844 1707.22 927.844 1759.81 974.25 1788 974.25 1735.06 927.844 1707.22Z" fill="#A6A6A6"/></g></g></g></g></svg>