<svg width="337" height="330" xmlns="http://www.w3.org/2000/svg" xmlns:xlink="http://www.w3.org/1999/xlink" xml:space="preserve" overflow="hidden"><g transform="translate(-1731 -1968)"><path d="M1731 2023C1731 1992.62 1755.62 1968 1786 1968L2006 1968C2036.38 1968 2061 1992.62 2061 2023L2061 2243C2061 2273.38 2036.38 2298 2006 2298L1786 2298C1755.62 2298 1731 2273.38 1731 2243Z" fill="#3F51B5" fill-rule="evenodd"/><g><g><g><path d="M1991.34 2115.12C1999.59 2163.94 1966.94 2210 1918.47 2218.25 1915.38 2218.59 1912.62 2221.34 1912.28 2224.78L1912.28 2225.12C1912.28 2228.91 1915.38 2232 1919.16 2232 1919.5 2232 1919.84 2232 1920.19 2232 1920.88 2232 1921.56 2231.66 1922.25 2231.66 1978.28 2221 2015.06 2167.03 2004.41 2111L2004.41 2111 2004.41 2111 2014.72 2116.84 2015.41 2117.19C2018.84 2118.91 2022.97 2117.19 2024.34 2113.75 2025.72 2110.31 2024.34 2106.53 2021.25 2104.81L1996.5 2090.38 1996.5 2090.38C1993.06 2088.31 1988.94 2089.69 1987.22 2092.78L1972.78 2117.88C1971.06 2120.97 1971.41 2124.75 1974.16 2126.81L1975.19 2127.5C1978.62 2129.56 1982.75 2128.19 1984.47 2125.09L1991 2114.44 1991.34 2115.12Z" fill="#FFFFFF"/><path d="M1857.28 2234.41C1854.19 2236.81 1853.84 2241.28 1856.25 2244.03 1858.66 2246.78 1862.44 2247.12 1865.19 2245.41L1890.28 2230.97 1890.28 2230.97C1893.72 2229.25 1894.75 2224.78 1892.69 2221.69L1878.94 2196.59C1877.22 2193.5 1873.44 2192.12 1870 2193.5L1869.31 2193.84C1865.88 2195.56 1864.84 2200.03 1866.91 2203.12L1872.75 2214.12 1872.75 2214.12 1872.75 2214.12C1872.41 2214.12 1872.06 2214.12 1872.06 2214.12 1825.66 2196.94 1802.28 2145.38 1819.47 2098.97L1819.81 2098.28C1820.84 2094.5 1818.44 2090.72 1815 2090.03 1811.56 2089.34 1807.78 2091.06 1806.75 2094.5L1806.41 2095.88C1786.81 2149.5 1815 2208.62 1868.97 2227.53L1868.97 2227.53 1868.97 2227.53 1858.31 2233.72 1857.28 2234.41Z" fill="#FFFFFF"/><path d="M1981.38 2063.22C1944.59 2019.91 1879.62 2014.41 1835.97 2051.53L1835.97 2051.53 1835.97 2051.53 1836.31 2039.16C1836.31 2038.81 1836.31 2038.47 1836.31 2038.12 1835.62 2034.34 1832.19 2031.94 1828.41 2032.62 1824.97 2033.31 1822.56 2036.41 1822.56 2039.84L1822.56 2068.72C1822.56 2070.44 1823.25 2072.16 1824.62 2073.53L1825.66 2074.22C1826.69 2074.91 1828.06 2075.25 1829.44 2075.25 1829.78 2075.25 1830.12 2075.25 1830.12 2075.25L1857.97 2075.25C1861.41 2075.25 1864.5 2072.84 1865.19 2069.41 1865.19 2069.06 1865.19 2068.72 1865.19 2068.38 1865.19 2064.59 1862.09 2061.5 1858.31 2061.5L1846.28 2061.5 1846.28 2061.5C1846.28 2061.5 1846.28 2061.5 1846.28 2061.16 1884.09 2030.22 1939.78 2035.38 1971.41 2072.84L1972.09 2073.53C1974.84 2075.94 1979.31 2075.59 1981.72 2072.84 1983.78 2070.09 1983.78 2066.31 1981.72 2063.56L1981.38 2063.22Z" fill="#FFFFFF"/><path d="M1880.66 2116.5 1903 2129.91 1952.16 2100 1929.81 2086.59Z" fill="#FFFFFF"/><path d="M1875.16 2113.06 1924.31 2083.16 1903 2070.09 1853.84 2100Z" fill="#FFFFFF"/><path d="M1952.16 2107.22 1906.09 2135.06 1906.09 2187.66 1952.16 2159.81 1952.16 2112.03Z" fill="#FFFFFF"/><path d="M1883.75 2133 1894.06 2138.84 1894.06 2149.16 1883.75 2143.31 1883.75 2133ZM1853.84 2107.22 1853.84 2159.81 1900.25 2188 1900.25 2135.06 1853.84 2107.22Z" fill="#FFFFFF"/></g></g></g></g></svg>